<svg xmlns="http://www.w3.org/2000/svg" viewBox="0 0 298.73 88.78"><defs><style>.cls-1{fill:#b4656f;}</style></defs><g id="Layer_2" data-name="Layer 2"><g id="Layer_2-2" data-name="Layer 2"><path class="cls-1" d="M44.5,60.84H3.82V51.05L28.37,21.24H5.83V11.16H44.21v10L19.87,50.76H44.5Z" transform="translate(-3.82 -6.76)"/><path class="cls-1" d="M63.72,13.1c0,3.89-2.66,6.34-6.7,6.34S50.33,17,50.33,13.1,53,6.76,57,6.76,63.72,9.21,63.72,13.1ZM50.54,60.84V22.39h13V60.84Z" transform="translate(-3.82 -6.76)"/><path class="cls-1" d="M84.24,49.61V60.84h-13V7.92h13v30.6L97.78,22.39H113L96.7,40l16.49,20.81H97.27L87,46.58Z" transform="translate(-3.82 -6.76)"/><path class="cls-1" d="M175.47,60.84h-13V40c0-4.32,0-10.73.14-15.77-.86,5-2.3,11.38-3.46,15.77l-5.47,20.88H140.4L134.86,40c-1.16-4.32-2.6-10.73-3.39-15.77.15,5,.15,11.45.15,15.77V60.84h-13V11.16h20.23l8.42,37.08,8.43-37.08h19.73Z" transform="translate(-3.82 -6.76)"/><path class="cls-1" d="M204.91,55.22l-1.58,4a17.68,17.68,0,0,1-9.51,2.59c-6.33,0-12.31-4-12.31-11.38,0-8.21,7.78-13.25,20.81-13.25h2.45v-.57a20.47,20.47,0,0,0-.15-2.81c-.21-2-1.8-3.67-4.6-3.67-3,0-4.76,1.94-5,5.25l-12.24.07c.07-9,8.06-14.11,17.78-14.11,12.17,0,16.35,5.4,16.92,12.39.15,1.94.22,4.17.22,6.55v10.8a65.67,65.67,0,0,0,.72,9.72H205.78Zm-.14-8.13V44.57c-5.83-.44-10,1.08-10,4.89,0,2.31,1.8,3.6,4.39,3.6A5.65,5.65,0,0,0,204.77,47.09Z" transform="translate(-3.82 -6.76)"/><path class="cls-1" d="M257.47,33.62H244.73c-.58-2.66-1.87-4.17-4.18-4.17a2.84,2.84,0,0,0-3.09,2.8c0,2.16,1.72,3.6,9.07,5.4,7,1.73,12,4.76,12,12.17,0,8.21-7.7,12-17,12-10.44,0-17.57-4.32-18.58-13h12.74a6,6,0,0,0,5.77,4.89c2.3,0,4.1-.93,4.1-3,0-2.45-2.45-3.82-9.29-5.4-7.34-1.73-11.74-5.11-11.74-11.66,0-7.64,6.63-12.39,16.85-12.39C250.92,21.38,256.46,26.64,257.47,33.62Z" transform="translate(-3.82 -6.76)"/><path class="cls-1" d="M302.55,39.09V60.84h-13V41.25c0-1.22,0-3.31-.14-5.25-.29-3.67-2.3-5.83-6.19-5.83s-6.77,3.81-6.77,12.52V60.84h-13V7.56h13V28.37l3.46-4.76a16,16,0,0,1,8.64-2.23c7.92,0,12.6,3.74,13.61,10.44A51.91,51.91,0,0,1,302.55,39.09Z" transform="translate(-3.82 -6.76)"/><path class="cls-1" d="M12,90.87H9.56V84.94L4.21,75.73H7l3.91,7,3.77-7h2.68L12,84.94Z" transform="translate(-3.82 -6.76)"/><path class="cls-1" d="M27.73,85c0,3.4-2,6.14-5.9,6.14s-5.9-2.74-5.9-6.14,2-6.12,5.9-6.12S27.73,81.63,27.73,85Zm-2.57,0c0-2.63-1.22-4.36-3.33-4.36S18.47,82.4,18.47,85s1.23,4.39,3.36,4.39S25.16,87.66,25.16,85Z" transform="translate(-3.82 -6.76)"/><path class="cls-1" d="M40,90.87H37.63v-2l-.82,1.45a4.57,4.57,0,0,1-2.94.85c-2.41,0-3.81-1.36-4.08-3a14.19,14.19,0,0,1-.11-2.06V79.22h2.4v6.45c0,.37,0,1,.08,1.6a2.3,2.3,0,0,0,2.5,2.11c1.69,0,3-1.3,3-4.68V79.22H40Z" transform="translate(-3.82 -6.76)"/><path class="cls-1" d="M49.12,79.06V81c-2.21-.15-3.59,1-3.59,3.86v6.06H43.11V79.22h2.42v2l1-1.6a3,3,0,0,1,1.8-.66A2.41,2.41,0,0,1,49.12,79.06Z" transform="translate(-3.82 -6.76)"/><path class="cls-1" d="M69.53,83.3c0,4.67-2.66,7.87-7.29,7.87s-7.3-3.2-7.3-7.87,2.65-7.88,7.3-7.88S69.53,78.6,69.53,83.3Zm-2.59,0c0-3.78-1.75-6-4.7-6s-4.71,2.26-4.71,6,1.75,6,4.71,6S66.94,87.05,66.94,83.3Z" transform="translate(-3.82 -6.76)"/><path class="cls-1" d="M82.19,84.31v6.56H79.78v-6.3c0-.55,0-1,0-1.65a2.2,2.2,0,0,0-2.46-2.23c-1.66,0-3,1.31-3,5v5.22H71.83V79.22h2.42v1.93L75,79.81a4.38,4.38,0,0,1,2.94-.9c2.5,0,3.92,1.29,4.14,3.34C82.17,82.84,82.19,83.36,82.19,84.31Z" transform="translate(-3.82 -6.76)"/><path class="cls-1" d="M87.46,87.31c0,.4,0,.75,0,1.1,0,.66.35.88,1.38.79v1.69a11.2,11.2,0,0,1-1.58.11c-1.27,0-2.13-.46-2.22-2,0-.44,0-1,0-1.67V74.74h2.42Z" transform="translate(-3.82 -6.76)"/><path class="cls-1" d="M93.51,76.54a1.37,1.37,0,0,1-1.42,1.4,1.39,1.39,0,1,1,1.42-1.4ZM90.88,90.87V79.22h2.41V90.87Z" transform="translate(-3.82 -6.76)"/><path class="cls-1" d="M106.74,84.31v6.56h-2.41v-6.3c0-.55,0-1,0-1.65a2.2,2.2,0,0,0-2.45-2.23c-1.67,0-3,1.31-3,5v5.22H96.39V79.22H98.8v1.93l.79-1.34a4.4,4.4,0,0,1,2.94-.9c2.5,0,3.93,1.29,4.15,3.34C106.72,82.84,106.74,83.36,106.74,84.31Z" transform="translate(-3.82 -6.76)"/><path class="cls-1" d="M119.67,85.71h-8.36c.19,2.79,1.47,3.71,3,3.71a2.65,2.65,0,0,0,2.74-2.33h2.43c-.5,2.77-2.72,4.08-5.26,4.08-3.12,0-5.47-2-5.47-6.09,0-3.69,2.35-6.17,5.71-6.17s5.2,2.55,5.2,5.84A9.49,9.49,0,0,1,119.67,85.71ZM111.33,84h5.9c-.17-2.15-1.12-3.35-2.81-3.35S111.59,81.78,111.33,84Z" transform="translate(-3.82 -6.76)"/><path class="cls-1" d="M139.65,80.6l0,.22h-2.4l0-.22a3.75,3.75,0,0,0-4-3.34c-2.81,0-4.58,2.42-4.58,6,0,3.76,1.79,6.08,4.47,6.08A3.78,3.78,0,0,0,137.13,86l.05-.22h2.39l0,.22c-.31,3-2.53,5.22-6.48,5.22-4.32,0-7-3.2-7-7.81,0-4.76,3-7.94,7.25-7.94C137.28,75.42,139.35,77.62,139.65,80.6Z" transform="translate(-3.82 -6.76)"/><path class="cls-1" d="M153,85c0,3.4-2,6.14-5.91,6.14s-5.9-2.74-5.9-6.14,2-6.12,5.9-6.12S153,81.63,153,85Zm-2.57,0c0-2.63-1.23-4.36-3.34-4.36s-3.35,1.73-3.35,4.36,1.22,4.39,3.35,4.39S150.43,87.66,150.43,85Z" transform="translate(-3.82 -6.76)"/><path class="cls-1" d="M165.48,84.31v6.56h-2.41v-6.3c0-.55,0-1,0-1.65a2.2,2.2,0,0,0-2.46-2.23c-1.66,0-3,1.31-3,5v5.22h-2.42V79.22h2.42v1.93l.79-1.34a4.38,4.38,0,0,1,2.94-.9c2.5,0,3.92,1.29,4.14,3.34C165.46,82.84,165.48,83.36,165.48,84.31Z" transform="translate(-3.82 -6.76)"/><path class="cls-1" d="M171.29,87.09a9.54,9.54,0,0,0,0,1c.08,1.14.52,1.38,2.1,1.23V91a13.42,13.42,0,0,1-1.77.13c-1.83,0-2.62-.68-2.73-2.22,0-.39,0-.9,0-1.56V81h-1.64V79.3h1.64V76.52h2.39V79.3h2.29V81h-2.29Z" transform="translate(-3.82 -6.76)"/><path class="cls-1" d="M185.49,85.71h-8.36c.2,2.79,1.47,3.71,3.05,3.71a2.65,2.65,0,0,0,2.74-2.33h2.44c-.51,2.77-2.72,4.08-5.27,4.08-3.11,0-5.46-2-5.46-6.09,0-3.69,2.35-6.17,5.7-6.17s5.2,2.55,5.2,5.84A9.49,9.49,0,0,1,185.49,85.71ZM177.15,84h5.91c-.18-2.15-1.12-3.35-2.81-3.35S177.42,81.78,177.15,84Z" transform="translate(-3.82 -6.76)"/><path class="cls-1" d="M198.19,84.31v6.56h-2.41v-6.3c0-.55,0-1,0-1.65a2.2,2.2,0,0,0-2.46-2.23c-1.67,0-3,1.31-3,5v5.22h-2.41V79.22h2.41v1.93l.79-1.34a4.4,4.4,0,0,1,2.94-.9c2.5,0,3.93,1.29,4.15,3.34C198.17,82.84,198.19,83.36,198.19,84.31Z" transform="translate(-3.82 -6.76)"/><path class="cls-1" d="M204,87.09c0,.4,0,.66,0,1,.09,1.14.53,1.38,2.11,1.23V91a13.69,13.69,0,0,1-1.78.13c-1.82,0-2.61-.68-2.72-2.22,0-.39,0-.9,0-1.56V81H200V79.3h1.65V76.52H204V79.3h2.28V81H204Z" transform="translate(-3.82 -6.76)"/><path class="cls-1" d="M229.22,90.87h-2.39V83.43c0-1.73,0-3.82,0-5.42-.44,1.6-1.07,3.69-1.64,5.4l-2.44,7.46H220l-2.45-7.48c-.55-1.69-1.19-3.76-1.61-5.36.05,1.63.05,3.67.05,5.4v7.44h-2.42V75.73h3.89l4,13,4-13h3.77Z" transform="translate(-3.82 -6.76)"/><path class="cls-1" d="M238.81,89.18l-.59,1.25a5,5,0,0,1-2.9.74c-2.06,0-3.75-1.18-3.75-3.35,0-2.59,2.06-4,6.47-4h.75v-.28a10.79,10.79,0,0,0,0-1.27c-.06-1-.66-1.6-2-1.6s-2.13.79-2.26,2.23H232c.15-2.54,2.06-4,4.72-4,3,0,4.19,1.27,4.38,3.25.05.48.07,1.09.07,1.64v4.11a19.67,19.67,0,0,0,.22,3H239Zm0-2.68V85.43c-2.83-.22-4.68.41-4.68,2.19,0,1.23.81,1.8,2.09,1.8C237.71,89.42,238.79,88.39,238.79,86.5Z" transform="translate(-3.82 -6.76)"/><path class="cls-1" d="M254.63,84.31v6.56h-2.42v-6.3c0-.55,0-1,0-1.65a2.2,2.2,0,0,0-2.46-2.23c-1.66,0-3,1.31-3,5v5.22h-2.42V79.22h2.42v1.93l.79-1.34a4.38,4.38,0,0,1,2.94-.9c2.5,0,3.92,1.29,4.14,3.34C254.61,82.84,254.63,83.36,254.63,84.31Z" transform="translate(-3.82 -6.76)"/><path class="cls-1" d="M264.06,89.18l-.59,1.25a5,5,0,0,1-2.9.74c-2.06,0-3.75-1.18-3.75-3.35,0-2.59,2.06-4,6.47-4H264v-.28c0-.44,0-.83,0-1.27-.07-1-.66-1.6-2-1.6s-2.13.79-2.26,2.23h-2.42c.16-2.54,2.07-4,4.72-4,3,0,4.19,1.27,4.39,3.25,0,.48.06,1.09.06,1.64v4.11a21.09,21.09,0,0,0,.22,3h-2.39Zm0-2.68V85.43c-2.83-.22-4.67.41-4.67,2.19,0,1.23.81,1.8,2.08,1.8C263,89.42,264,88.39,264,86.5Z" transform="translate(-3.82 -6.76)"/><path class="cls-1" d="M280.23,88c0,.73,0,1.63,0,2.26-.13,3.53-2.32,5.31-5.83,5.31s-5.14-1.4-5.38-3.9l0-.22h2.37l0,.19c.15,1.25,1.23,2.11,3,2.11a3.07,3.07,0,0,0,3.4-3.22c0-.51,0-.93,0-1.34v-.24l-.88,1.27a5.07,5.07,0,0,1-3,.88c-3.36,0-5.31-2.46-5.31-5.89,0-4.25,2.63-6.27,5.64-6.27a5.12,5.12,0,0,1,2.76.72l.77,1.17V79.22h2.41Zm-2.41-2.92v-.5c0-2.83-1.71-3.88-3.27-3.88-1.91,0-3.36,1.4-3.36,4.3,0,2.52,1.17,4.34,3.25,4.34C276.26,89.31,277.82,88.17,277.82,85.05Z" transform="translate(-3.82 -6.76)"/><path class="cls-1" d="M293.31,85.71H285c.2,2.79,1.47,3.71,3.05,3.71a2.65,2.65,0,0,0,2.74-2.33h2.44c-.51,2.77-2.72,4.08-5.27,4.08-3.11,0-5.46-2-5.46-6.09,0-3.69,2.35-6.17,5.7-6.17s5.2,2.55,5.2,5.84A9.49,9.49,0,0,1,293.31,85.71ZM285,84h5.91c-.18-2.15-1.12-3.35-2.81-3.35S285.24,81.78,285,84Z" transform="translate(-3.82 -6.76)"/><path class="cls-1" d="M301.67,79.06V81c-2.22-.15-3.6,1-3.6,3.86v6.06h-2.41V79.22h2.41v2l1-1.6a3,3,0,0,1,1.8-.66A2.41,2.41,0,0,1,301.67,79.06Z" transform="translate(-3.82 -6.76)"/></g></g></svg>