<svg xmlns="http://www.w3.org/2000/svg" viewBox="0 0 109.37 54.08"><defs><style>.cls-1{fill:#b4656f;}</style></defs><g id="Layer_2" data-name="Layer 2"><g id="Layer_2-2" data-name="Layer 2"><path class="cls-1" d="M44.5,60.84H3.82V51.05L28.37,21.24H5.83V11.16H44.21v10L19.87,50.76H44.5Z" transform="translate(-3.82 -6.76)"/><path class="cls-1" d="M63.72,13.1c0,3.89-2.66,6.34-6.7,6.34S50.33,17,50.33,13.1,53,6.76,57,6.76,63.72,9.21,63.72,13.1ZM50.54,60.84V22.39h13V60.84Z" transform="translate(-3.82 -6.76)"/><path class="cls-1" d="M84.24,49.61V60.84h-13V7.92h13v30.6L97.78,22.39H113L96.7,40l16.49,20.81H97.27L87,46.58Z" transform="translate(-3.82 -6.76)"/></g></g></svg>