<svg id="Layer_1" data-name="Layer 1" xmlns="http://www.w3.org/2000/svg" viewBox="0 0 1000 800"><defs><style>.cls-1{fill:#1d201f;}.cls-2{fill:#b4656f;}</style></defs><rect class="cls-1" x="100" y="200" width="800" height="400"/><path class="cls-2" d="M281.71,419.46H200V399.79l49.32-59.87H204.05V319.67h77.08v20.1l-48.88,59.44h49.46Z"/><path class="cls-2" d="M320.32,323.57c0,7.81-5.35,12.73-13.45,12.73s-13.45-4.92-13.45-12.73,5.35-12.72,13.45-12.72S320.32,315.76,320.32,323.57Zm-26.47,95.89V342.23h26v77.23Z"/><path class="cls-2" d="M361.53,396.9v22.56h-26V313.16h26v61.46l27.19-32.39h30.52l-32.69,35.43,33.12,41.8h-32L367,390.82Z"/><path class="cls-2" d="M544.76,419.46h-26V377.52c0-8.68,0-21.55.29-31.67-1.74,10.12-4.63,22.85-6.94,31.67l-11,41.94H474.33l-11.14-41.94c-2.31-8.68-5.2-21.55-6.79-31.67.29,10.12.29,23,.29,31.67v41.94h-26V319.67h40.63l16.92,74.48,16.93-74.48h39.62Z"/><path class="cls-2" d="M603.9,408.18l-3.18,8.1a35.31,35.31,0,0,1-19.09,5.2c-12.72,0-24.73-8-24.73-22.85,0-16.48,15.62-26.61,41.8-26.61h4.91v-1.15a44.43,44.43,0,0,0-.28-5.65c-.44-3.9-3.62-7.37-9.26-7.37-6.07,0-9.55,3.9-10,10.56l-24.59.14c.15-18.08,16.2-28.35,35.73-28.35,24.44,0,32.83,10.85,34,24.88.29,3.9.44,8.39.44,13.16v21.69a133.82,133.82,0,0,0,1.44,19.53H605.64Zm-.29-16.34v-5.07c-11.71-.86-20.1,2.17-20.1,9.84,0,4.63,3.62,7.23,8.82,7.23S603.61,399.93,603.61,391.84Z"/><path class="cls-2" d="M709.47,364.79h-25.6c-1.16-5.35-3.76-8.39-8.39-8.39-3.61,0-6.21,2.32-6.21,5.64,0,4.34,3.47,7.23,18.22,10.85,14,3.47,24,9.54,24,24.44,0,16.49-15.47,24.15-34.13,24.15-21,0-35.28-8.67-37.31-26h25.6c1.45,5.93,6.07,9.84,11.57,9.84,4.63,0,8.24-1.89,8.24-5.93,0-4.92-4.91-7.67-18.65-10.85-14.76-3.47-23.58-10.27-23.58-23.43,0-15.33,13.31-24.88,33.84-24.88C696.31,340.2,707.45,350.76,709.47,364.79Z"/><path class="cls-2" d="M800,375.78v43.68H774V380.12c0-2.46,0-6.65-.29-10.56-.58-7.37-4.63-11.71-12.44-11.71s-13.59,7.66-13.59,25.16v36.45h-26v-107h26v41.79l6.94-9.54a32.22,32.22,0,0,1,17.35-4.49c15.91,0,25.31,7.52,27.34,21A101.41,101.41,0,0,1,800,375.78Z"/><path class="cls-2" d="M216.64,479.77h-4.81v-11.9l-10.75-18.5h5.51l7.84,14.05L222,449.37h5.38l-10.75,18.5Z"/><path class="cls-2" d="M248.32,468.05c0,6.83-4,12.34-11.85,12.34s-11.85-5.51-11.85-12.34,4-12.29,11.85-12.29S248.32,461.22,248.32,468.05Zm-5.15,0c0-5.29-2.47-8.77-6.7-8.77s-6.74,3.48-6.74,8.77,2.47,8.81,6.74,8.81S243.17,473.34,243.17,468.05Z"/><path class="cls-2" d="M273,479.77h-4.8v-4l-1.63,2.91a9.25,9.25,0,0,1-5.91,1.72c-4.84,0-7.66-2.74-8.19-5.95a26,26,0,0,1-.22-4.14V456.37h4.8v13a29.62,29.62,0,0,0,.18,3.21c.35,2.56,2,4.23,5,4.23,3.39,0,5.95-2.6,5.95-9.38v-11H273Z"/><path class="cls-2" d="M291.29,456.06v3.79c-4.45-.31-7.23,2-7.23,7.76v12.16h-4.84v-23.4h4.84v4l2-3.22a6.06,6.06,0,0,1,3.61-1.32A4.64,4.64,0,0,1,291.29,456.06Z"/><path class="cls-2" d="M332.27,464.57c0,9.38-5.33,15.82-14.63,15.82S303,474,303,464.57s5.33-15.82,14.67-15.82S332.27,455.14,332.27,464.57Zm-5.2,0c0-7.58-3.52-12.12-9.43-12.12s-9.47,4.54-9.47,12.12,3.53,12.11,9.47,12.11S327.07,472.1,327.07,464.57Z"/><path class="cls-2" d="M357.7,466.59v13.18h-4.84V467.12c0-1.1,0-2.11-.09-3.3-.22-2.65-1.63-4.5-4.94-4.5s-6.08,2.65-6.08,10v10.49h-4.84v-23.4h4.84v3.88l1.59-2.69a8.8,8.8,0,0,1,5.9-1.8c5,0,7.89,2.59,8.33,6.69C357.66,463.64,357.7,464.7,357.7,466.59Z"/><path class="cls-2" d="M368.28,472.63c0,.79,0,1.5.05,2.2.08,1.33.7,1.77,2.77,1.59v3.39a22.65,22.65,0,0,1-3.17.22c-2.56,0-4.27-.92-4.45-3.92,0-.88,0-1.94,0-3.35V447.38h4.84Z"/><path class="cls-2" d="M380.45,451a2.77,2.77,0,0,1-2.87,2.82,2.8,2.8,0,1,1,0-5.6A2.76,2.76,0,0,1,380.45,451Zm-5.29,28.77v-23.4H380v23.4Z"/><path class="cls-2" d="M407,466.59v13.18h-4.85V467.12c0-1.1,0-2.11-.09-3.3-.22-2.65-1.63-4.5-4.93-4.5s-6.08,2.65-6.08,10v10.49h-4.85v-23.4h4.85v3.88l1.58-2.69a8.81,8.81,0,0,1,5.91-1.8c5,0,7.88,2.59,8.32,6.69C407,463.64,407,464.7,407,466.59Z"/><path class="cls-2" d="M433,469.41H416.19c.39,5.6,2.95,7.45,6.12,7.45a5.33,5.33,0,0,0,5.51-4.67h4.89c-1,5.55-5.46,8.2-10.58,8.2-6.25,0-11-4-11-12.25,0-7.41,4.72-12.38,11.46-12.38s10.44,5.11,10.44,11.72A17,17,0,0,1,433,469.41ZM416.23,466h11.85c-.35-4.32-2.24-6.74-5.64-6.74S416.76,461.53,416.23,466Z"/><path class="cls-2" d="M473.12,459.15l0,.44h-4.8l-.09-.44c-.83-4.1-3.34-6.7-7.93-6.7-5.64,0-9.21,4.85-9.21,12,0,7.53,3.62,12.2,9,12.2,4.58,0,7.1-2.68,7.93-6.78l.09-.44H473l-.05.44c-.62,6-5.07,10.49-13,10.49-8.68,0-14-6.44-14-15.69,0-9.56,6-15.95,14.54-15.95C468.36,448.75,472.5,453.16,473.12,459.15Z"/><path class="cls-2" d="M499.92,468.05c0,6.83-4,12.34-11.86,12.34s-11.85-5.51-11.85-12.34,4-12.29,11.85-12.29S499.92,461.22,499.92,468.05Zm-5.16,0c0-5.29-2.47-8.77-6.7-8.77s-6.74,3.48-6.74,8.77,2.47,8.81,6.74,8.81S494.76,473.34,494.76,468.05Z"/><path class="cls-2" d="M525,466.59v13.18h-4.84V467.12c0-1.1,0-2.11-.09-3.3-.22-2.65-1.63-4.5-4.94-4.5S509,462,509,469.28v10.49h-4.85v-23.4H509v3.88l1.59-2.69a8.8,8.8,0,0,1,5.9-1.8c5,0,7.89,2.59,8.33,6.69C525,463.64,525,464.7,525,466.59Z"/><path class="cls-2" d="M536.67,472.19c0,.79,0,1.32.05,1.94.17,2.29,1,2.78,4.23,2.47V480a25.77,25.77,0,0,1-3.57.26c-3.66,0-5.25-1.37-5.47-4.45,0-.79,0-1.81,0-3.13V459.94h-3.31v-3.39h3.31V451h4.8v5.6h4.58v3.39h-4.58Z"/><path class="cls-2" d="M565.18,469.41H548.4c.39,5.6,3,7.45,6.12,7.45a5.33,5.33,0,0,0,5.51-4.67h4.89c-1,5.55-5.47,8.2-10.58,8.2-6.25,0-11-4-11-12.25,0-7.41,4.72-12.38,11.46-12.38s10.44,5.11,10.44,11.72A17,17,0,0,1,565.18,469.41ZM548.44,466h11.85c-.35-4.32-2.25-6.74-5.64-6.74S549,461.53,548.44,466Z"/><path class="cls-2" d="M590.7,466.59v13.18h-4.85V467.12c0-1.1,0-2.11-.08-3.3-.22-2.65-1.63-4.5-4.94-4.5s-6.08,2.65-6.08,10v10.49H569.9v-23.4h4.85v3.88l1.59-2.69a8.8,8.8,0,0,1,5.9-1.8c5,0,7.89,2.59,8.33,6.69C590.66,463.64,590.7,464.7,590.7,466.59Z"/><path class="cls-2" d="M602.38,472.19c0,.79,0,1.32,0,1.94.17,2.29,1.05,2.78,4.23,2.47V480a25.77,25.77,0,0,1-3.57.26c-3.66,0-5.25-1.37-5.47-4.45,0-.79,0-1.81,0-3.13V459.94h-3.31v-3.39h3.31V451h4.8v5.6H607v3.39h-4.58Z"/><path class="cls-2" d="M653,479.77h-4.8V464.83c0-3.48,0-7.66.09-10.88-.88,3.22-2.16,7.4-3.31,10.84l-4.89,15h-5.59l-4.94-15c-1.1-3.39-2.38-7.53-3.22-10.75.09,3.26.09,7.36.09,10.84v14.94H621.6v-30.4h7.8l8,26.08,8-26.08H653Z"/><path class="cls-2" d="M672.27,476.38l-1.19,2.51a10.05,10.05,0,0,1-5.81,1.5c-4.14,0-7.54-2.38-7.54-6.75,0-5.19,4.15-8,13-8h1.5v-.58a24.15,24.15,0,0,0-.09-2.55c-.13-1.9-1.32-3.22-4.1-3.22s-4.27,1.59-4.53,4.49h-4.85c.31-5.11,4.14-8,9.47-8,6,0,8.42,2.55,8.81,6.52.09,1,.14,2.2.14,3.3v8.24a40.9,40.9,0,0,0,.44,5.95h-4.81Zm0-5.38v-2.16c-5.68-.44-9.39.84-9.39,4.41,0,2.47,1.64,3.61,4.19,3.61C670.07,476.86,672.23,474.79,672.23,471Z"/><path class="cls-2" d="M704.05,466.59v13.18H699.2V467.12c0-1.1,0-2.11-.09-3.3-.22-2.65-1.63-4.5-4.93-4.5s-6.08,2.65-6.08,10v10.49h-4.85v-23.4h4.85v3.88l1.58-2.69a8.81,8.81,0,0,1,5.91-1.8c5,0,7.89,2.59,8.33,6.69C704,463.64,704.05,464.7,704.05,466.59Z"/><path class="cls-2" d="M723,476.38l-1.19,2.51a10.08,10.08,0,0,1-5.82,1.5c-4.14,0-7.53-2.38-7.53-6.75,0-5.19,4.14-8,13-8H723v-.58a24.15,24.15,0,0,0-.09-2.55c-.13-1.9-1.32-3.22-4.1-3.22s-4.27,1.59-4.54,4.49h-4.85c.31-5.11,4.15-8,9.48-8,6,0,8.41,2.55,8.81,6.52.09,1,.13,2.2.13,3.3v8.24a40.9,40.9,0,0,0,.44,5.95h-4.8Zm0-5.38v-2.16c-5.69-.44-9.39.84-9.39,4.41,0,2.47,1.63,3.61,4.19,3.61C720.8,476.86,723,474.79,723,471Z"/><path class="cls-2" d="M755.48,474c0,1.46,0,3.26-.05,4.54-.26,7.1-4.67,10.66-11.72,10.66-6.74,0-10.31-2.82-10.79-7.84l0-.44h4.76l0,.4c.3,2.51,2.46,4.23,6.08,4.23,4.23,0,6.65-2.29,6.83-6.48,0-1,0-1.85,0-2.69v-.48l-1.76,2.55a10.07,10.07,0,0,1-6,1.77c-6.75,0-10.67-4.94-10.67-11.81,0-8.55,5.29-12.6,11.33-12.6a10.26,10.26,0,0,1,5.55,1.45l1.54,2.33v-3.17h4.85Zm-4.85-5.86v-1c0-5.68-3.44-7.8-6.57-7.8-3.83,0-6.74,2.82-6.74,8.64,0,5.06,2.34,8.72,6.52,8.72C747.5,476.64,750.63,474.35,750.63,468.09Z"/><path class="cls-2" d="M781.74,469.41H765c.4,5.6,3,7.45,6.13,7.45a5.33,5.33,0,0,0,5.51-4.67h4.89c-1,5.55-5.46,8.2-10.58,8.2-6.25,0-11-4-11-12.25,0-7.41,4.72-12.38,11.46-12.38s10.44,5.11,10.44,11.72A17,17,0,0,1,781.74,469.41ZM765,466h11.85c-.35-4.32-2.24-6.74-5.64-6.74S765.53,461.53,765,466Z"/><path class="cls-2" d="M798.53,456.06v3.79c-4.44-.31-7.22,2-7.22,7.76v12.16h-4.85v-23.4h4.85v4l2-3.22a6.06,6.06,0,0,1,3.62-1.32A4.58,4.58,0,0,1,798.53,456.06Z"/></svg>