<?xml version="1.0" standalone="no"?>
<!DOCTYPE svg PUBLIC "-//W3C//DTD SVG 20010904//EN"
 "http://www.w3.org/TR/2001/REC-SVG-20010904/DTD/svg10.dtd">
<svg version="1.0" xmlns="http://www.w3.org/2000/svg"
 width="1744.000000pt" height="1744.000000pt" viewBox="0 0 1744.000000 1744.000000"
 preserveAspectRatio="xMidYMid meet">
<metadata>
Created by potrace 1.14, written by Peter Selinger 2001-2017
</metadata>
<g transform="translate(0.000000,1744.000000) scale(0.100000,-0.100000)"
fill="#000000" stroke="none">
<path d="M8325 13023 c-200 -36 -269 -56 -385 -112 -41 -20 -77 -38 -80 -41
-3 -3 -27 -21 -55 -39 -67 -47 -161 -142 -213 -218 -43 -63 -108 -195 -116
-236 -2 -12 -9 -34 -15 -49 -6 -16 -8 -28 -6 -28 2 0 0 -12 -5 -26 -25 -66
-34 -410 -12 -437 7 -8 9 -16 6 -20 -19 -19 65 -268 117 -344 16 -23 29 -44
29 -47 0 -17 143 -166 205 -213 119 -90 315 -166 490 -190 132 -18 409 -8 510
19 22 5 47 12 55 13 8 2 34 10 58 19 23 8 45 15 47 15 12 1 167 82 197 103
128 91 219 195 290 328 131 249 150 608 47 890 -23 62 -80 173 -91 178 -5 2
-8 8 -8 13 0 13 -10 25 -99 120 -192 205 -470 309 -821 306 -69 0 -134 -2
-145 -4z"/>
<path d="M10759 12840 c-1 -3 -2 -1901 -3 -4217 l-1 -4213 1036 0 1035 0 0
894 -1 895 49 53 c26 29 71 78 100 109 28 30 85 93 126 139 41 46 96 106 121
133 l47 48 30 -43 c17 -24 35 -47 39 -53 5 -5 29 -39 53 -75 25 -36 47 -67 50
-70 13 -13 90 -120 90 -125 0 -3 9 -16 21 -28 11 -12 37 -47 56 -77 20 -30 39
-57 43 -60 6 -5 116 -157 135 -188 13 -20 37 -51 53 -67 6 -8 12 -18 12 -24 0
-6 4 -11 8 -11 5 0 15 -12 23 -27 8 -16 24 -39 37 -53 12 -14 22 -28 22 -32 0
-3 6 -13 13 -20 20 -21 144 -193 188 -260 17 -27 35 -48 40 -48 5 0 9 -5 9
-10 0 -9 71 -111 90 -130 3 -3 10 -13 15 -22 9 -14 142 -199 192 -267 10 -13
32 -43 48 -66 17 -24 106 -149 199 -277 l169 -233 1264 0 c853 0 1263 3 1263
10 0 5 -17 28 -37 50 -20 22 -47 57 -61 78 -13 20 -28 37 -31 37 -4 0 -14 12
-23 28 -9 15 -28 41 -42 57 -14 17 -31 37 -39 45 -7 9 -26 34 -42 55 -17 22
-32 42 -36 45 -3 3 -39 48 -80 100 -41 52 -79 102 -86 110 -7 8 -44 56 -83
105 -39 50 -79 99 -88 110 -10 11 -31 38 -48 60 -16 22 -37 49 -46 60 -9 11
-48 61 -87 110 -39 50 -75 96 -81 103 -16 18 -210 263 -240 302 -25 32 -49 62
-71 89 -7 7 -28 34 -47 60 -19 25 -38 48 -41 51 -3 3 -19 23 -36 45 -16 22
-32 42 -35 45 -3 3 -55 68 -115 145 -119 151 -135 171 -150 189 -6 6 -34 42
-64 80 -29 37 -59 75 -66 85 -33 39 -152 190 -170 215 -11 15 -29 38 -40 50
-27 31 -42 50 -98 123 -26 34 -53 68 -60 75 -6 7 -25 31 -42 53 -16 22 -34 45
-40 51 -5 6 -35 43 -65 83 -30 39 -58 71 -62 71 -5 0 -8 6 -8 14 0 8 -3 16 -8
18 -4 2 -32 34 -62 73 -68 87 -82 104 -95 119 -6 6 -24 29 -40 51 -17 22 -36
46 -43 54 -11 11 -10 16 5 31 10 9 63 65 118 125 55 60 116 125 135 146 19 20
69 75 111 121 42 45 98 106 125 134 27 29 69 74 94 101 169 184 260 283 290
314 19 20 71 76 115 124 44 48 104 113 133 143 28 30 52 56 52 57 0 2 21 25
48 52 26 27 90 96 142 153 52 57 109 118 125 135 17 18 68 74 115 125 47 51
103 112 125 135 22 23 83 88 135 145 52 57 106 115 120 130 14 15 66 71 115
125 50 54 106 115 125 135 19 20 76 82 125 136 50 54 104 113 120 130 17 17
50 52 74 77 l44 46 -1215 0 -1215 1 -29 -37 c-16 -20 -34 -41 -39 -47 -9 -9
-67 -78 -127 -151 -9 -11 -26 -31 -38 -45 -12 -14 -45 -53 -73 -87 -28 -35
-54 -63 -59 -63 -4 0 -8 -7 -8 -15 0 -7 -6 -18 -12 -22 -7 -4 -29 -28 -49 -53
-20 -25 -45 -55 -55 -66 -61 -71 -111 -130 -123 -148 -8 -11 -22 -27 -30 -36
-21 -21 -55 -62 -111 -130 -25 -30 -47 -57 -50 -60 -3 -3 -27 -32 -55 -65 -27
-33 -60 -71 -71 -85 -33 -38 -144 -171 -189 -225 -22 -27 -50 -59 -62 -71 -13
-13 -23 -27 -23 -33 0 -5 -3 -11 -7 -13 -7 -3 -65 -69 -138 -157 -11 -13 -25
-29 -30 -35 -6 -6 -28 -33 -50 -61 -22 -27 -43 -52 -46 -55 -3 -3 -41 -48 -85
-100 -43 -52 -83 -100 -89 -106 -5 -7 -26 -31 -45 -54 -19 -23 -42 -50 -50
-60 -8 -9 -34 -39 -56 -66 -67 -79 -224 -266 -258 -307 -17 -22 -43 -53 -58
-70 -15 -18 -28 -36 -29 -42 -11 -96 -14 433 -13 2451 0 1328 -2 2415 -5 2415
-19 5 -2061 3 -2062 -1z"/>
<path d="M330 11527 l0 -804 48 -1 c26 -1 54 -2 62 -2 8 0 41 1 73 3 32 1 61
-1 63 -5 3 -5 10 -5 16 -2 15 9 111 9 125 1 7 -4 14 -4 16 0 6 10 89 9 104 0
7 -4 14 -4 16 0 3 5 58 7 124 6 65 -2 124 -3 131 -3 6 0 32 0 57 0 25 0 52 0
60 0 8 0 42 0 75 0 33 0 67 0 75 0 8 0 35 0 60 0 25 0 51 0 58 0 6 0 48 1 93
2 44 1 85 -2 92 -5 6 -4 13 -4 15 0 6 9 89 9 104 0 6 -4 13 -4 17 0 9 10 226
9 226 -1 0 -5 6 -4 13 1 6 5 37 7 67 6 71 -4 65 -4 133 0 31 1 57 -2 57 -6 0
-6 5 -6 13 0 10 7 44 8 162 3 6 -1 52 1 103 2 50 2 92 -1 92 -6 0 -5 6 -4 13
1 6 5 37 7 67 6 71 -4 65 -4 133 0 31 1 57 -2 57 -6 0 -6 5 -6 13 0 6 5 44 7
82 6 39 -2 75 -3 80 -3 6 0 39 0 75 2 36 1 71 -1 77 -5 7 -4 14 -4 16 0 6 10
89 9 104 0 7 -4 14 -4 16 0 3 5 58 7 124 6 65 -2 124 -3 131 -3 34 0 103 0
115 0 6 0 36 1 66 2 60 2 71 -7 44 -37 -10 -11 -36 -42 -58 -70 -21 -27 -48
-60 -59 -71 -36 -37 -56 -64 -56 -74 0 -6 -4 -10 -9 -10 -5 0 -28 -26 -52 -57
-42 -55 -86 -107 -119 -142 -8 -9 -26 -32 -40 -51 -13 -19 -27 -37 -31 -40 -3
-3 -59 -70 -125 -150 -65 -80 -123 -150 -129 -156 -5 -6 -23 -28 -40 -49 -16
-21 -42 -52 -57 -68 -16 -17 -28 -33 -28 -36 0 -4 -19 -28 -42 -53 -24 -26
-54 -62 -68 -80 -14 -17 -59 -73 -100 -122 -41 -50 -78 -95 -82 -101 -5 -5
-20 -24 -35 -42 -16 -17 -41 -48 -58 -69 -16 -21 -38 -46 -47 -56 -10 -10 -18
-22 -18 -27 0 -5 -3 -11 -7 -13 -7 -2 -95 -105 -136 -158 -7 -8 -34 -42 -62
-75 -27 -33 -57 -68 -65 -78 -8 -11 -31 -38 -50 -61 -19 -23 -50 -61 -68 -84
-19 -22 -41 -50 -50 -60 -10 -11 -30 -36 -47 -57 -16 -20 -37 -45 -45 -55 -8
-10 -28 -34 -45 -55 -16 -20 -34 -42 -40 -49 -18 -21 -110 -131 -120 -144 -5
-7 -20 -24 -33 -37 -13 -14 -21 -25 -18 -25 3 0 -8 -15 -25 -32 -26 -29 -75
-88 -238 -287 -20 -25 -43 -52 -51 -61 -8 -8 -25 -29 -38 -47 -22 -31 -72 -90
-104 -125 -10 -10 -18 -22 -18 -27 0 -5 -4 -11 -8 -13 -5 -1 -102 -118 -217
-258 -115 -140 -212 -257 -215 -260 -3 -3 -23 -27 -45 -55 -21 -27 -42 -52
-45 -55 -3 -3 -25 -30 -50 -60 -25 -30 -53 -64 -62 -75 -9 -11 -96 -117 -193
-235 -98 -118 -192 -233 -210 -255 -92 -110 -193 -235 -220 -269 -16 -21 -42
-51 -58 -67 -15 -15 -27 -32 -27 -38 0 -6 -4 -11 -10 -11 -7 0 -10 -268 -10
-785 l0 -785 3240 0 c2585 0 3240 3 3241 13 3 41 3 1556 1 1573 l-4 21 -1945
-1 c-1070 -1 -1950 2 -1955 6 -11 6 -4 17 44 73 9 11 43 52 74 90 31 39 59 72
63 75 4 3 22 25 41 50 19 25 37 47 40 50 3 3 21 25 40 50 19 25 37 47 41 50 3
3 39 46 79 95 40 50 80 98 89 107 9 9 27 31 41 49 14 17 42 53 63 78 66 80 71
87 107 131 19 24 51 62 70 85 19 22 49 58 65 79 17 21 39 48 50 60 11 12 34
39 50 60 17 21 38 48 48 60 10 11 28 34 40 49 12 15 33 40 45 55 13 15 51 60
83 100 33 41 65 80 72 87 6 7 24 28 39 46 26 34 274 336 306 374 9 11 35 42
57 70 54 67 76 94 100 121 11 12 29 35 40 50 11 15 27 35 36 43 8 9 33 38 55
66 21 27 44 55 49 61 6 6 26 30 45 54 19 24 45 55 57 69 12 14 59 71 104 126
44 55 91 111 103 125 11 14 39 48 61 75 22 28 43 52 46 55 3 3 54 66 114 140
60 74 114 140 120 146 5 6 26 30 45 54 19 24 44 54 55 66 11 12 29 34 39 49
11 14 28 36 39 48 21 25 58 68 147 177 34 41 72 88 86 104 13 15 24 29 24 31
0 3 55 68 83 97 9 10 17 21 17 24 0 3 16 22 35 42 19 20 35 40 35 44 0 3 16
23 35 42 19 20 35 38 35 41 0 4 27 38 55 69 6 6 28 33 50 61 43 54 83 100 103
121 6 7 12 15 12 18 0 3 8 14 18 24 9 10 33 38 52 62 19 24 42 51 50 60 8 9
42 49 75 90 59 74 73 91 115 140 12 14 34 43 50 65 l27 40 0 792 0 791 -3059
1 -3058 2 0 -804z"/>
<path d="M7455 7477 l0 -3062 1037 -3 1036 -2 -2 3062 -1 3063 -1035 2 -1035
2 0 -3062z"/>
</g>
</svg>
